<svg xmlns="http://www.w3.org/2000/svg" xmlns:xlink="http://www.w3.org/1999/xlink" version="1.1" x="0px" y="0px" viewBox="0 0 512 640" style="enable-background:new 0 0 512 512;" xml:space="preserve"><g><g><g><path d="M259.641,439.212c-60.439,0-111.762-44.818-119.927-104.473h-19.312l33.689-58.353l33.688,58.353h-18.855     c6.97,38.334,38.129,68.647,76.652,74.56V138.482l2.103,0.922c3.655,1.603,7.56,2.416,11.604,2.416     c4.558,0,8.922-1.026,12.972-3.051l2.171-1.085v271.5c38.15-6.166,69.015-36.429,75.934-74.445h-18.138l33.688-58.353     l33.688,58.353h-20.03C371.403,394.394,320.08,439.212,259.641,439.212z M125.598,331.739h16.755l0.165,1.313     c7.398,58.812,57.75,103.16,117.123,103.16c59.373,0,109.725-44.349,117.123-103.16l0.165-1.313h17.474l-28.493-49.353     l-28.493,49.353h16.483l-0.281,1.739c-3.249,20.09-12.684,38.286-27.284,52.62c-14.618,14.352-33.014,23.451-53.198,26.316     l-1.711,0.242V142.44c-3.846,1.581-7.919,2.38-12.143,2.38c-3.696,0-7.288-0.616-10.707-1.834v269.759l-1.699-0.229     c-20.347-2.728-38.909-11.778-53.679-26.173c-14.745-14.37-24.266-32.65-27.534-52.865l-0.281-1.739h17.201l-28.492-49.353     L125.598,331.739z"/></g><g><g><path d="M259.282,144.82c-4.462,0-8.771-0.898-12.809-2.668c-11.667-5.099-19.208-16.619-19.208-29.348      c0-17.654,14.363-32.017,32.017-32.017c17.653,0,32.016,14.363,32.016,32.017c0,12.199-6.782,23.176-17.701,28.647      C269.125,143.687,264.31,144.82,259.282,144.82z M259.282,83.788c-16,0-29.017,13.017-29.017,29.017      c0,11.536,6.834,21.977,17.411,26.6c3.657,1.604,7.562,2.417,11.606,2.417c4.558,0,8.922-1.026,12.972-3.051      c9.896-4.959,16.044-14.908,16.044-25.965C288.298,96.804,275.281,83.788,259.282,83.788z M259.282,131.896      c-4.981,0-9.688-1.905-13.251-5.363c-3.764-3.609-5.841-8.487-5.841-13.728c0-10.527,8.564-19.092,19.092-19.092      s19.092,8.564,19.092,19.092c0,4.38-1.521,8.655-4.285,12.039C270.451,129.325,265.055,131.896,259.282,131.896z       M259.282,96.712c-8.873,0-16.092,7.219-16.092,16.092c0,4.416,1.749,8.524,4.923,11.569c3.008,2.918,6.972,4.522,11.168,4.522      c4.864,0,9.412-2.167,12.478-5.943l0.004-0.004c2.328-2.85,3.61-6.453,3.61-10.144      C275.374,103.931,268.155,96.712,259.282,96.712z"/></g><g><path d="M259.282,131.896c-4.981,0-9.688-1.905-13.251-5.363c-3.764-3.609-5.841-8.487-5.841-13.728      c0-10.527,8.564-19.092,19.092-19.092s19.092,8.564,19.092,19.092c0,4.381-1.522,8.658-4.288,12.042      C270.451,129.325,265.055,131.896,259.282,131.896z M259.282,96.712c-8.873,0-16.092,7.219-16.092,16.092      c0,4.416,1.749,8.524,4.923,11.569c3.008,2.918,6.972,4.522,11.168,4.522c4.864,0,9.412-2.166,12.478-5.943      c2.332-2.854,3.614-6.457,3.614-10.148C275.374,103.931,268.155,96.712,259.282,96.712z"/></g></g></g></g><text x="0" y="527" fill="#000000" font-size="5px" font-weight="bold" font-family="'Helvetica Neue', Helvetica, Arial-Unicode, Arial, Sans-serif">Created by Usman Farooq</text><text x="0" y="532" fill="#000000" font-size="5px" font-weight="bold" font-family="'Helvetica Neue', Helvetica, Arial-Unicode, Arial, Sans-serif">from the Noun Project</text></svg>