<?xml version="1.0"?>
<svg width="110" height="135" xmlns="http://www.w3.org/2000/svg" xmlns:svg="http://www.w3.org/2000/svg" version="1.1">
 <g class="layer">
  <title>Layer 1</title>
  <g id="svg_1">
   <path d="m72.15,35.6c0.22,-0.23 0.38,-0.56 0.5,-0.99c0,-0.02 0.01,-0.03 0.01,-0.04c0.03,-0.12 0.06,-0.24 0.08,-0.37c0,-0.03 0.01,-0.05 0.01,-0.07c0.02,-0.13 0.04,-0.25 0.05,-0.39c0.01,-0.08 0.02,-0.17 0.02,-0.26c0,-0.04 0.01,-0.08 0.01,-0.12c0.09,-1.56 -0.17,-3.67 -0.49,-5.98c-0.11,-0.77 -0.21,-1.65 -0.32,-2.6c-0.65,-5.65 -1.63,-14.19 -6.29,-16.77c-3.52,-1.96 -9.04,-2.76 -15.14,-3.16c-0.01,0 -0.01,0 -0.02,0c-3.09,-0.2 -6.32,-0.31 -9.53,-0.41l-0.18,-0.01c-4.15,-0.13 -8.56,0.15 -10.67,4.22c-0.01,0.02 -0.02,0.03 -0.02,0.05c-0.52,1.02 -0.91,2.27 -1.1,3.82c-0.07,0.52 -0.16,1.19 -0.27,1.98c-1.3,9.66 -2.4,19.75 -0.96,22.92c0,0.01 0.35,0.58 0.42,0.66c0.55,0.85 1.09,1.71 1.63,2.59c0.16,0.25 0.31,0.51 0.47,0.77c0.45,0.73 0.9,1.47 1.36,2.23c1.78,2.94 3.61,5.99 5.83,9.19c1.02,1.47 1.82,4.41 1.93,7.12c0.01,0.25 0.02,0.49 0.01,0.73c-0.01,0.97 -0.11,1.88 -0.34,2.65c-0.29,1 -1.31,2.68 -2.92,4.84c-0.06,0.07 -0.12,0.15 -0.18,0.23c-0.05,0.08 -0.12,0.16 -0.18,0.24c-2.12,2.78 -4.47,5.4 -4.51,5.45c-0.01,0.01 -0.02,0.03 -0.03,0.04c0,0.02 -0.01,0.02 -0.01,0.04c-0.02,0.02 -0.02,0.06 -0.02,0.09l0,0.65l-0.7,2.19c-0.02,0.08 -0.01,0.16 0.04,0.23c0.05,0.07 0.13,0.11 0.21,0.11l2.09,0c0.07,0 0.14,-0.03 0.19,-0.08l2.12,-2.15l6.28,0l2.64,3.33c0.17,0.25 0.53,0.95 0.37,1.46c-0.42,-0.01 -0.83,-0.01 -1.26,-0.01l-0.2,0c-0.14,0 -0.26,0.11 -0.26,0.25l0,1.48l-0.68,0c-0.36,-0.56 -1.91,-3 -2.54,-4.09c-0.36,-0.64 -1.31,-2.12 -2.26,-2.12c-0.2,0 -0.48,0.06 -0.73,0.39c-0.7,0.91 -0.51,2.54 -0.2,4.17c0.07,0.37 0.17,0.73 0.26,1.06c0.05,0.17 0.11,0.38 0.15,0.57l-0.54,0c-0.33,0 -0.55,-0.1 -0.75,-0.19c-0.15,-0.07 -0.29,-0.13 -0.44,-0.13c-0.15,0 -0.27,0.11 -0.27,0.25l0,6c0,0.14 0.12,0.26 0.27,0.26c0.15,0 0.29,-0.07 0.44,-0.14c0.2,-0.09 0.42,-0.19 0.75,-0.19l1.52,0c-0.04,0.11 -0.08,0.22 -0.12,0.32c-0.33,0.97 -0.63,1.88 -0.97,2.56c-0.22,0.36 -0.38,0.64 -0.43,0.69c-0.07,0.12 -0.05,0.28 0.06,0.36c0.05,0.03 0.1,0.05 0.16,0.05c0.07,0 0.15,-0.03 0.2,-0.1c0.15,-0.2 0.31,-0.45 0.46,-0.75c0.21,-0.36 0.46,-0.78 0.69,-1.18c0.31,0.63 0.77,1.07 1.32,1.25c0.17,0.04 0.33,0.07 0.49,0.07c0.41,0 0.84,-0.16 1.21,-0.46c1.02,-0.82 1.43,-2.04 1.59,-2.82l0.36,0l0,1.53c0,0.15 0.11,0.27 0.26,0.27l1.42,0c0.05,0.15 0.09,0.43 -0.11,0.73c-0.4,0.6 -2.27,4.93 -2.35,5.11c-0.03,0.08 -0.03,0.17 0.02,0.25c0.05,0.07 0.13,0.11 0.22,0.11l6.29,-0.01c0.01,0 0.07,0.02 0.19,0.02c0.26,0 0.77,-0.07 1.39,-0.48c0.13,-0.07 0.68,-0.32 1.38,-0.62c3.87,-1.7 12.93,-5.66 12.93,-9.23l-0.01,-11.39c0.47,0.01 0.74,0.01 0.76,0.01c0.33,0 0.59,-0.34 0.59,-0.79c0,-0.44 -0.26,-0.79 -0.59,-0.79c-0.02,0 -0.29,0.01 -0.76,0.02l0,-4.29c0.47,0.01 0.74,0.01 0.76,0.01c0.32,0 0.59,-0.29 0.59,-0.65s-0.27,-0.65 -0.59,-0.65c-0.02,0 -0.43,0.01 -1.14,0.02c-0.01,-0.01 -0.01,-0.01 -0.01,-0.01c-0.02,-0.02 -1.55,-1.28 -2.82,-2.11c-0.45,-0.29 -0.82,-0.53 -1.15,-0.74c-0.66,-0.41 -1.18,-0.74 -1.9,-1.26l-0.12,-0.09c-0.69,-0.49 -0.96,-0.69 -1.1,-1.27c0.04,-0.03 0.08,-0.06 0.12,-0.1c0.2,-0.2 0.32,-0.47 0.32,-0.77l0,-2.46c0,-0.29 -0.12,-0.56 -0.32,-0.77c-0.07,-0.07 -0.16,-0.12 -0.24,-0.17l-0.01,-15.65c0.02,-0.02 12.96,-4.87 14.07,-5.22c0.02,0 0.03,-0.01 0.05,-0.01c0.3,-0.1 0.52,-0.16 0.64,-0.19l0,0c0.1,-0.03 0.2,-0.08 0.28,-0.13c0.01,-0.01 0.02,-0.01 0.03,-0.02c0.09,-0.05 0.16,-0.12 0.24,-0.2l0,0.01zm-0.51,-0.26c-3.11,0.43 -7.32,1.19 -10.4,1.73c-1.6,0.29 -2.87,0.52 -3.52,0.61l-0.53,0.08c-3.2,0.48 -6.27,0.94 -7.26,4.28l-18.61,0c-1.62,-2.8 -2.78,-4.43 -2.83,-4.49l16.37,-2.07l0.07,0.52c0.02,0.14 0.09,0.26 0.2,0.35c0.09,0.07 0.2,0.1 0.31,0.1c0.03,0 0.05,0 0.07,0c0.03,0 1.03,-0.14 1.99,-0.26l1.74,-0.23c0.14,-0.02 0.26,-0.09 0.34,-0.2c0.09,-0.11 0.12,-0.25 0.1,-0.38l-0.06,-0.5l7.15,-0.9c0.01,0.08 0.02,0.16 0.04,0.25c0.01,0.12 0.03,0.22 0.03,0.24c0.02,0.14 0.09,0.26 0.2,0.35c0.1,0.07 0.2,0.1 0.32,0.1c0.02,0 0.04,0 0.06,0l1.26,-0.17c1.07,-0.14 2.43,-0.32 2.47,-0.32c0.28,-0.04 0.48,-0.3 0.44,-0.59c0,-0.02 -0.02,-0.12 -0.04,-0.25c-0.01,-0.07 -0.02,-0.14 -0.03,-0.21l10.79,-1.36c0.01,0.26 0.18,2.68 -0.67,3.32zm-20.43,17.98c-0.33,-1.98 -0.64,-4.16 -0.95,-6.65c-0.22,-1.72 -0.17,-3.06 0.08,-4.11l5.99,0l0,10.76l-5.12,0zm5.11,-12.04l0,0.76l-5.84,0c0.97,-2.89 3.73,-3.31 6.79,-3.77l0.53,-0.07c0.66,-0.11 1.93,-0.33 3.53,-0.62c2.19,-0.39 4.95,-0.88 7.48,-1.29c-1.46,0.49 -3.32,1.13 -5.11,1.76c-7.38,2.61 -7.38,2.95 -7.38,3.23zm-12.06,6.93l-6.82,0l0,-5.65l6.82,0l0,5.65zm-8.17,-5.65l0.83,0l0,3.62l-0.83,-3.62zm8.69,0l0.63,0l-0.63,3.23l0,-3.23zm4.32,-7.61l0.07,0.49l-1.74,0.23c-0.95,0.13 -1.95,0.26 -1.98,0.27l-0.07,-0.52l3.72,-0.47zm11.91,-1.5c0.01,0.07 0.02,0.15 0.04,0.22c0.02,0.12 0.03,0.22 0.04,0.24c-0.04,0.01 -1.4,0.19 -2.47,0.33l-1.26,0.17c-0.01,-0.02 -0.02,-0.13 -0.04,-0.26c-0.02,-0.08 -0.03,-0.16 -0.04,-0.23l3.73,-0.47zm-20.17,-28.5l0.18,0.01c3.04,0.1 6.1,0.2 9.04,0.38l-1.42,2.08c-0.02,0.04 -0.62,1.11 -2.46,1.11l-15.33,0c2.04,-3.46 6,-3.7 9.99,-3.58zm-12.61,32.11c-1.47,-3.61 0.3,-16.66 1.09,-22.48c0.1,-0.8 0.2,-1.48 0.26,-1.99c0.18,-1.43 0.52,-2.59 0.99,-3.54l15.61,0c2.18,0 2.9,-1.34 2.91,-1.37l1.57,-2.3c5.99,0.4 11.4,1.18 14.82,3.08c4.43,2.46 5.39,10.84 6.02,16.38c0.11,0.95 0.21,1.84 0.32,2.61c0.17,1.17 0.37,2.67 0.46,4.06m-40.13,11.89c-0.17,-0.28 -0.35,-0.56 -0.51,-0.84l3.91,0l1.37,5.97c0.01,0.01 0.05,0.2 0.26,0.2c0.21,0 0,0 0,0l7.34,0c0.03,0 0.06,-0.01 0.1,-0.02c0,-0.01 0.02,-0.01 0.02,-0.02c0.02,-0.01 0.04,-0.02 0.05,-0.03c0.02,-0.01 0.02,-0.02 0.03,-0.03c0.01,-0.02 0.02,-0.03 0.03,-0.05c0.01,-0.01 0.01,-0.02 0.01,-0.03s0.01,-0.02 0.02,-0.03l1.16,-5.96l3.86,0c-0.23,1.09 -0.27,2.45 -0.06,4.17c0.31,2.47 0.62,4.63 0.94,6.59l-12.28,0c-0.14,-0.28 -0.28,-0.53 -0.43,-0.75c-2.21,-3.19 -4.05,-6.23 -5.82,-9.17zm31.77,31.34c-0.02,-0.01 -0.04,-0.02 -0.05,-0.02l-28.75,0.01l-3.32,0l0,-0.18l31.47,0l0.6,0.01c0.02,0 0.03,-0.01 0.05,-0.02l0,0.2zm-31.1,2.21l-1.63,0l0.54,-1.71l2.77,0l-1.68,1.71zm10.5,3.58c0.43,0.01 0.85,0.01 1.27,0.01c0.45,0.51 2.56,2.39 9.52,2.78c4.45,0.25 6.81,0.32 8.01,0.33c0.46,0.36 0.69,0.7 0.69,1.04c0,2.01 -7.82,4.16 -19.48,4.16l0,-8.32l-0.01,0zm-6.31,-4.29c0.13,-0.17 0.25,-0.18 0.32,-0.18c0.45,0 1.18,0.74 1.81,1.86c0.56,0.98 1.87,3.03 2.4,3.87c-0.26,0.01 -0.7,0.02 -1.43,0.02c-1.66,0 -2.37,0.36 -2.55,0.48c-0.03,0 -0.08,0 -0.16,-0.01c0.02,-0.31 -0.09,-0.74 -0.24,-1.27c-0.09,-0.33 -0.19,-0.67 -0.25,-1.02c-0.18,-0.93 -0.56,-2.89 0.1,-3.75zm1.2,11.7c0.44,-1.29 0.9,-2.6 1.5,-3.62c0.48,-0.79 0.99,-1.21 1.48,-1.21c0.37,0 0.67,0.23 0.81,0.38c-0.03,0.1 -0.12,0.28 -0.33,0.51c-0.08,0.09 -0.27,0.31 -0.52,0.59c-1.18,1.29 -2.43,2.68 -2.94,3.35zm2.33,2.05c-0.4,0.32 -0.82,0.42 -1.23,0.3c-0.49,-0.15 -0.91,-0.63 -1.14,-1.31c0.12,-0.21 0.23,-0.39 0.3,-0.51c0.08,-0.14 0.35,-0.48 0.7,-0.89l2.74,0c-0.15,0.7 -0.53,1.73 -1.37,2.41zm-0.92,-2.93c0.66,-0.74 1.42,-1.59 1.91,-2.13c0.26,-0.28 0.45,-0.5 0.53,-0.59c0.44,-0.5 0.48,-0.83 0.48,-0.9c0.01,-0.06 -0.01,-0.11 -0.04,-0.16c-0.17,-0.24 -0.65,-0.69 -1.31,-0.69c-0.7,0 -1.35,0.49 -1.93,1.46c-0.52,0.87 -0.92,1.94 -1.3,3.01l-1.7,0c-0.42,0 -0.71,0.13 -0.93,0.23l0,-5.27c0.22,0.1 0.51,0.23 0.93,0.23l0.62,0c-0.01,0.02 -0.01,0.05 -0.02,0.06c-0.05,0.06 -0.07,0.15 -0.04,0.23c0.02,0.08 0.08,0.14 0.16,0.17c0.19,0.06 0.36,0.1 0.52,0.1s0.25,-0.03 0.31,-0.07c0.01,0 0.61,-0.41 2.29,-0.41c1.22,0 1.69,-0.02 1.89,-0.06l0.81,0l0,4.8l-3.18,-0.01zm11.69,6.95c-0.87,0.38 -1.3,0.57 -1.45,0.67c-0.71,0.47 -1.18,0.39 -1.25,0.38l-5.94,0c0.61,-1.42 1.86,-4.23 2.14,-4.66c0.27,-0.4 0.27,-0.78 0.21,-1.04c9.28,-0.19 18.31,-1.91 18.31,-4.66c0,-0.53 -0.32,-1.04 -0.97,-1.51c-0.05,-0.03 -0.1,-0.05 -0.15,-0.05c-1.17,-0.01 -3.52,-0.08 -8.07,-0.34c-6.68,-0.38 -8.72,-2.13 -9.13,-2.57c0.32,-0.86 -0.4,-1.91 -0.43,-1.97l-2.4,-3.02l21.69,0c0.02,0 0.03,-0.01 0.05,-0.01l0.02,10.02c-0.01,3.24 -9.18,7.25 -12.63,8.76zm12.61,-19.96c-0.02,-0.01 -0.03,-0.01 -0.05,-0.01l-31.75,0c0.17,-0.2 0.41,-0.51 0.61,-0.72l13.58,0c0.07,0.08 0.17,0.14 0.28,0.14c0.06,0 2.5,0.06 5.6,0.13c5.13,0.11 9.62,0.22 11.73,0.27l0,0.19zm1.34,-0.96c0,0.16 -0.06,0.25 -0.08,0.28c-0.31,-0.01 -4.71,-0.11 -9.15,-0.21c-0.95,-0.02 -0.95,-0.11 0,-0.13c4.55,-0.11 9.06,-0.21 9.14,-0.22c0.02,0.02 0.09,0.11 0.09,0.28zm-13.07,-0.49c-3.1,0.07 -5.55,0.12 -5.59,0.13c-0.09,0 -0.16,0.03 -0.22,0.08l-13.19,0c0.2,-0.24 0.42,-0.5 0.65,-0.78l30.06,0c0.01,0 0.01,0 0.02,0l0,0.3c-2.11,0.05 -6.6,0.15 -11.73,0.27zm13.07,-5.21c0,0.09 -0.05,0.13 -0.07,0.13c-0.08,0 -3.36,-0.05 -7.15,-0.1c-0.16,-0.01 -0.15,-0.05 0.01,-0.06c3.79,-0.05 7.06,-0.11 7.14,-0.11c0.03,0 0.07,0.06 0.07,0.14zm-7.5,-4.42l0.12,0.09c0.73,0.53 1.25,0.85 1.91,1.27c0.34,0.22 0.71,0.45 1.16,0.74c0.82,0.53 1.75,1.26 2.3,1.69c-2.31,0.04 -6.42,0.1 -11.06,0.17c-3.11,0.05 -5.55,0.09 -5.6,0.09c-0.2,0 -0.37,0.16 -0.37,0.36c0,0.21 0.17,0.37 0.37,0.37c0.05,0 2.49,0.04 5.6,0.09c5.13,0.07 9.62,0.15 11.73,0.18l0,3.49c-0.01,0 -0.02,0 -0.02,0l-29.63,0c1.31,-1.6 4.92,-6.1 5.37,-8c0.69,-2.98 0.15,-7.06 -0.99,-9.68l17.68,0l0,3.02l-3.98,-0.62c-0.02,-0.01 -0.07,-0.02 -0.09,-0.02l-0.01,0.05c0,-0.01 0,-0.02 -0.01,-0.02l0.01,-0.03c-0.01,0 -0.01,0.01 -0.01,0.01c-0.14,-0.38 -0.49,-0.64 -0.91,-0.64c-0.43,0 -0.78,0.27 -0.91,0.66c-0.02,0 -0.04,-0.01 -0.05,0l-3.88,0.61c-0.28,0 -0.56,0.11 -0.77,0.32c-0.2,0.2 -0.31,0.48 -0.31,0.77l0,2.46c0,0.29 0.11,0.56 0.31,0.77c0.21,0.2 0.47,0.31 0.71,0.31l0,0l3.94,0.62c0.01,0.01 0.04,0.01 0.05,0.01c0.14,0.38 0.49,0.66 0.91,0.66c0.42,0 0.78,-0.27 0.91,-0.65c0.01,0 0.02,0.01 0.02,0.01l4.05,-0.64c0.06,0 0.11,-0.01 0.16,-0.02c0.2,0.71 0.6,1.01 1.29,1.5zm-5.98,-6.42c0,0.24 -0.2,0.44 -0.45,0.44c-0.24,0 -0.45,-0.2 -0.45,-0.44s0.2,-0.45 0.45,-0.45c0.25,0 0.45,0.2 0.45,0.45zm-0.9,5.26c0,-0.25 0.2,-0.45 0.45,-0.45c0.25,0 0.45,0.2 0.45,0.45s-0.2,0.45 -0.45,0.45c-0.25,0 -0.45,-0.2 -0.45,-0.45zm6,-1.4c0,0.15 -0.06,0.29 -0.17,0.4c-0.11,0.11 -0.25,0.16 -0.44,0.17l-3.99,0.63c-0.1,-0.43 -0.49,-0.77 -0.95,-0.77c-0.46,0 -0.84,0.32 -0.94,0.75l-3.92,-0.61c-0.14,-0.01 -0.28,-0.06 -0.39,-0.17c-0.1,-0.1 -0.16,-0.25 -0.16,-0.4l0,-2.46c0,-0.15 0.06,-0.3 0.16,-0.4c0.11,-0.11 0.25,-0.17 0.45,-0.17l3.85,-0.61c0.1,0.43 0.48,0.74 0.94,0.74c0.47,0 0.85,-0.33 0.95,-0.77l4.05,0.64c0.11,0 0.28,0.06 0.38,0.16c0.11,0.11 0.17,0.25 0.17,0.41l0.01,2.46z" id="svg_2"/>
   <path d="m56.19,75.78l-3.87,0c-0.38,0 -0.68,0.31 -0.68,0.68l0,5.43c0,0.37 0.31,0.67 0.68,0.67l3.87,0c0.15,0 0.26,-0.11 0.26,-0.26l0,-6.26c0,-0.14 -0.11,-0.26 -0.26,-0.26zm-0.26,6.26l-3.61,0c-0.09,0 -0.16,-0.07 -0.16,-0.15l0,-5.43c0,-0.09 0.07,-0.16 0.16,-0.16l3.61,0l0,5.74z" id="svg_3"/>
   <path d="m52.51,76.89l1.56,0c0.07,0 0.13,-0.06 0.13,-0.13l0,-0.16c0,-0.07 -0.06,-0.13 -0.13,-0.13l-1.56,0c-0.07,0 -0.13,0.06 -0.13,0.13l0,0.16c0,0.07 0.05,0.13 0.13,0.13z" id="svg_4"/>
   <path d="m52.51,77.51l1.56,0c0.07,0 0.13,-0.06 0.13,-0.13l0,-0.16c0,-0.07 -0.06,-0.13 -0.13,-0.13l-1.56,0c-0.07,0 -0.13,0.06 -0.13,0.13l0,0.16c0,0.07 0.05,0.13 0.13,0.13z" id="svg_5"/>
   <path d="m52.51,78.13l1.56,0c0.07,0 0.13,-0.06 0.13,-0.13l0,-0.16c0,-0.07 -0.06,-0.13 -0.13,-0.13l-1.56,0c-0.07,0 -0.13,0.06 -0.13,0.13l0,0.16c0,0.07 0.05,0.13 0.13,0.13z" id="svg_6"/>
   <path d="m52.51,78.75l1.56,0c0.07,0 0.13,-0.06 0.13,-0.13l0,-0.16c0,-0.07 -0.06,-0.13 -0.13,-0.13l-1.56,0c-0.07,0 -0.13,0.05 -0.13,0.13l0,0.16c0,0.07 0.05,0.13 0.13,0.13z" id="svg_7"/>
   <path d="m52.51,79.36l1.56,0c0.07,0 0.13,-0.05 0.13,-0.13l0,-0.16c0,-0.07 -0.06,-0.12 -0.13,-0.12l-1.56,0c-0.07,0 -0.13,0.05 -0.13,0.12l0,0.16c0,0.08 0.05,0.13 0.13,0.13z" id="svg_8"/>
   <path d="m52.51,79.98l1.56,0c0.07,0 0.13,-0.05 0.13,-0.13l0,-0.16c0,-0.07 -0.06,-0.13 -0.13,-0.13l-1.56,0c-0.07,0 -0.13,0.06 -0.13,0.13l0,0.16c0,0.08 0.05,0.13 0.13,0.13z" id="svg_9"/>
   <path d="m52.51,80.6l1.56,0c0.07,0 0.13,-0.06 0.13,-0.13l0,-0.16c0,-0.06 -0.06,-0.13 -0.13,-0.13l-1.56,0c-0.07,0 -0.13,0.06 -0.13,0.13l0,0.16c0,0.08 0.05,0.13 0.13,0.13z" id="svg_10"/>
   <path d="m52.51,81.22l1.56,0c0.07,0 0.13,-0.06 0.13,-0.13l0,-0.15c0,-0.07 -0.06,-0.13 -0.13,-0.13l-1.56,0c-0.07,0 -0.13,0.06 -0.13,0.13l0,0.15c0,0.07 0.05,0.13 0.13,0.13z" id="svg_11"/>
   <path d="m52.51,81.84l1.56,0c0.07,0 0.13,-0.06 0.13,-0.13l0,-0.16c0,-0.07 -0.06,-0.13 -0.13,-0.13l-1.56,0c-0.07,0 -0.13,0.06 -0.13,0.13l0,0.16c0,0.07 0.05,0.13 0.13,0.13z" id="svg_12"/>
   <path d="m54.7,81.91c0.15,0 0.26,-0.11 0.26,-0.26l0,-4.93c0,-0.14 -0.11,-0.26 -0.26,-0.26s-0.25,0.12 -0.25,0.26l0,4.93c-0.01,0.15 0.11,0.26 0.25,0.26z" id="svg_13"/>
  </g>
 </g>
</svg>