<?xml version="1.0"?>
<svg width="1000" height="1250" xmlns="http://www.w3.org/2000/svg" xmlns:svg="http://www.w3.org/2000/svg" data-name="Layer 1">
 <title>1440-Lifesaver Vest</title>
 <g class="layer">
  <title>Layer 1</title>
  <path d="m775.3,907.5l-550.6,0a7.5,7.5 0 0 1 -7.5,-7.5l0,-343.16a72.17,72.17 0 0 1 12.8,-40.94c30.52,-44.54 43.08,-114.54 37.31,-208c-4.69,-76.11 -20.59,-146.22 -27.22,-172.83a22.57,22.57 0 0 1 14.62,-26.67l43.54,-14.67a22.43,22.43 0 0 1 29.56,20.1c3.34,63.1 26.79,209.85 172.2,209.85s168.85,-146.8 172.19,-209.9a22.43,22.43 0 0 1 29.56,-20.1l43.54,14.67a22.57,22.57 0 0 1 14.62,26.65c-6.63,26.61 -22.53,96.72 -27.22,172.83c-5.77,93.51 6.79,163.51 37.31,208a72.17,72.17 0 0 1 12.79,40.94l0,343.23a7.5,7.5 0 0 1 -7.5,7.5zm-543.1,-15l535.6,0l0,-335.66a57.17,57.17 0 0 0 -10.17,-32.46c-32.45,-47.38 -45.88,-120.53 -39.91,-217.45c4.77,-77.35 20.92,-148.52 27.64,-175.54a7.45,7.45 0 0 0 -4.85,-8.82l-43.51,-14.67a7.43,7.43 0 0 0 -9.79,6.67c-1.53,28.86 -8,84.52 -33.93,133c-14.61,27.27 -33.54,48.78 -56.27,63.92c-27,18 -59.67,27.14 -97,27.14s-69.94,-9.13 -97,-27.14c-22.73,-15.14 -41.66,-36.65 -56.27,-63.92c-26,-48.48 -32.4,-104.14 -33.93,-133a7.43,7.43 0 0 0 -9.81,-6.67l-43.54,14.67a7.45,7.45 0 0 0 -4.85,8.82c6.72,27 22.87,98.19 27.64,175.54c6,96.92 -7.46,170.08 -39.91,217.45a57.17,57.17 0 0 0 -10.17,32.46l0.03,335.66z" id="svg_1"/>
  <path d="m500,287.78c-43.6,0 -81.62,-10.84 -113,-32.2c-26.27,-17.89 -48,-43.28 -64.71,-75.44a7.06,7.06 0 0 1 -0.5,-1.2a7.49,7.49 0 0 1 7.13,-9.82a7.48,7.48 0 0 1 6.81,4.36l0.05,0.09c34.25,65.83 89.49,99.21 164.2,99.21s130,-33.44 164.28,-99.36a7.5,7.5 0 0 1 14.26,3.24l0,0a7.43,7.43 0 0 1 -0.85,3.45c-16.67,32.19 -38.42,57.58 -64.67,75.47c-31.38,21.36 -69.4,32.2 -113,32.2z" id="svg_2"/>
  <path d="m394.71,678.1l-170,0a7.5,7.5 0 0 1 0,-15l170,0a7.5,7.5 0 0 1 0,15z" id="svg_3"/>
  <path d="m775.29,678.1l-170,0a7.5,7.5 0 0 1 0,-15l170,0a7.5,7.5 0 0 1 0,15z" id="svg_4"/>
  <path d="m394.71,622.89l-170,0a7.5,7.5 0 0 1 0,-15l170,0a7.5,7.5 0 0 1 0,15z" id="svg_5"/>
  <path d="m775.29,622.89l-170,0a7.5,7.5 0 0 1 0,-15l170,0a7.5,7.5 0 0 1 0,15z" id="svg_6"/>
  <path d="m394.71,826.94l-170,0a7.5,7.5 0 0 1 0,-15l170,0a7.5,7.5 0 1 1 0,15z" id="svg_7"/>
  <path d="m775.29,826.94l-170,0a7.5,7.5 0 0 1 0,-15l170,0a7.5,7.5 0 0 1 0,15z" id="svg_8"/>
  <path d="m394.71,771.72l-170,0a7.5,7.5 0 0 1 0,-15l170,0a7.5,7.5 0 1 1 0,15z" id="svg_9"/>
  <path d="m775.29,771.72l-170,0a7.5,7.5 0 0 1 0,-15l170,0a7.5,7.5 0 0 1 0,15z" id="svg_10"/>
  <path d="m586.31,696.2l-172.62,0a26.49,26.49 0 0 1 -26.47,-26.46l0,-53.48a26.5,26.5 0 0 1 26.47,-26.47l172.62,0a26.5,26.5 0 0 1 26.47,26.47l0,53.48a26.49,26.49 0 0 1 -26.47,26.46zm-172.62,-91.41a11.48,11.48 0 0 0 -11.47,11.47l0,53.48a11.47,11.47 0 0 0 11.47,11.46l172.62,0a11.47,11.47 0 0 0 11.47,-11.46l0,-53.48a11.48,11.48 0 0 0 -11.47,-11.47l-172.62,0z" id="svg_11"/>
  <path d="m586.31,845l-172.62,0a26.5,26.5 0 0 1 -26.47,-26.47l0,-53.45a26.49,26.49 0 0 1 26.47,-26.46l172.62,0a26.49,26.49 0 0 1 26.47,26.46l0,53.48a26.5,26.5 0 0 1 -26.47,26.44zm-172.62,-91.38a11.47,11.47 0 0 0 -11.47,11.46l0,53.48a11.48,11.48 0 0 0 11.47,11.44l172.62,0a11.48,11.48 0 0 0 11.47,-11.47l0,-53.45a11.47,11.47 0 0 0 -11.47,-11.46l-172.62,0z" id="svg_12"/>
  <path d="m476,604.78a7.49,7.49 0 0 1 -7.5,-7.5l0,-267.52a7.5,7.5 0 0 1 15,0l0,267.52a7.5,7.5 0 0 1 -7.5,7.5z" id="svg_13"/>
  <path d="m524,604.78a7.5,7.5 0 0 1 -7.5,-7.5l0,-267.52a7.5,7.5 0 0 1 15,0l0,267.52a7.49,7.49 0 0 1 -7.5,7.5z" id="svg_14"/>
 </g>
</svg>