<?xml version="1.0"?>
<svg width="512" height="640" xmlns="http://www.w3.org/2000/svg" xmlns:svg="http://www.w3.org/2000/svg" enable-background="new 0 0 512 512" version="1.1" xml:space="preserve">
 <g class="layer">
  <title>Layer 1</title>
  <g id="svg_1">
   <g id="svg_2">
    <g id="svg_3">
     <path d="m259.64,439.21c-60.44,0 -111.76,-44.82 -119.93,-104.47l-19.31,0l33.69,-58.35l33.69,58.35l-18.86,0c6.97,38.33 38.13,68.65 76.66,74.56l0,-270.82l2.1,0.92c3.65,1.61 7.56,2.42 11.6,2.42c4.56,0 8.93,-1.03 12.97,-3.05l2.18,-1.09l0,271.5c38.15,-6.16 69.01,-36.43 75.93,-74.44l-18.14,0l33.69,-58.35l33.69,58.35l-20.03,0c-8.17,59.65 -59.49,104.47 -119.93,104.47zm-134.04,-107.47l16.75,0l0.17,1.31c7.4,58.81 57.75,103.16 117.12,103.16c59.37,0 109.73,-44.35 117.12,-103.16l0.17,-1.31l17.47,0l-28.49,-49.35l-28.49,49.35l16.48,0l-0.28,1.74c-3.25,20.09 -12.68,38.28 -27.28,52.62c-14.62,14.35 -33.02,23.45 -53.2,26.31l-1.71,0.25l0,-270.22c-3.85,1.58 -7.92,2.38 -12.15,2.38c-3.69,0 -7.28,-0.62 -10.7,-1.83l0,269.76l-1.7,-0.23c-20.35,-2.73 -38.91,-11.78 -53.68,-26.18c-14.75,-14.37 -24.27,-32.65 -27.54,-52.86l-0.28,-1.74l17.2,0l-28.49,-49.35l-28.49,49.35z" id="svg_4" stroke="#000000"/>
    </g>
    <g id="svg_5">
     <g id="svg_6">
      <path d="m259.28,144.82c-4.46,0 -8.77,-0.9 -12.81,-2.67c-11.66,-5.1 -19.21,-16.62 -19.21,-29.35c0,-17.65 14.37,-32.01 32.02,-32.01c17.66,0 32.02,14.36 32.02,32.01c0,12.2 -6.78,23.18 -17.7,28.65c-4.47,2.24 -9.29,3.37 -14.32,3.37zm0,-61.03c-16,0 -29.02,13.01 -29.02,29.01c0,11.54 6.84,21.98 17.42,26.61c3.65,1.6 7.56,2.41 11.6,2.41c4.56,0 8.92,-1.02 12.97,-3.05c9.9,-4.96 16.05,-14.91 16.05,-25.96c0,-16.01 -13.02,-29.02 -29.02,-29.02zm0,48.11c-4.98,0 -9.69,-1.91 -13.25,-5.37c-3.76,-3.61 -5.84,-8.48 -5.84,-13.73c0,-10.52 8.56,-19.09 19.09,-19.09s19.09,8.57 19.09,19.09c0,4.38 -1.52,8.66 -4.28,12.04c-3.64,4.48 -9.03,7.06 -14.81,7.06zm0,-35.19c-8.87,0 -16.09,7.22 -16.09,16.09c0,4.42 1.75,8.53 4.92,11.57c3.01,2.92 6.98,4.53 11.17,4.53c4.86,0 9.41,-2.17 12.48,-5.95l0,0c2.33,-2.85 3.61,-6.45 3.61,-10.15c0,-8.87 -7.22,-16.09 -16.09,-16.09z" id="svg_7" stroke="#000000"/>
     </g>
     <g id="svg_8">
      <path d="m259.28,131.9c-4.98,0 -9.69,-1.91 -13.25,-5.37c-3.76,-3.61 -5.84,-8.48 -5.84,-13.73c0,-10.52 8.56,-19.09 19.09,-19.09s19.09,8.57 19.09,19.09c0,4.39 -1.52,8.66 -4.28,12.05c-3.64,4.47 -9.03,7.05 -14.81,7.05zm0,-35.19c-8.87,0 -16.09,7.22 -16.09,16.09c0,4.42 1.75,8.53 4.92,11.57c3.01,2.92 6.98,4.53 11.17,4.53c4.86,0 9.41,-2.17 12.48,-5.95c2.33,-2.85 3.61,-6.45 3.61,-10.15c0,-8.87 -7.22,-16.09 -16.09,-16.09z" id="svg_9" stroke="#000000"/>
     </g>
    </g>
   </g>
  </g>
 </g>
</svg>