<svg version="1.2" xmlns="http://www.w3.org/2000/svg" viewBox="0 0 1170 500" width="1170" height="500"><style>.a{fill:#fdfdfd}.b{fill:#221f22}.c{fill:#38b2f9}.d{fill:#fafcfd}.e{fill:#fefefe}.f{fill:#f4fafd}.g{fill:#f7fbfd}.h{fill:#f8fbfd}.i{fill:#f6fbfd}.j{fill:#f9fcfd}.k{fill:#f5fafd}.l{fill:#2b292c}.m{fill:#f3fafd}.n{fill:#f6fafd}.o{fill:#eaf6fd}.p{fill:#f3f9fd}.q{fill:#eef8fd}.r{fill:#f0f8fd}.s{fill:#e8f5fd}.t{fill:#ecf7fd}.u{fill:#fbfcfd}.v{fill:#f1f9fd}.w{fill:#ebf6fd}.x{fill:#eef7fd}.y{fill:#e9f6fd}</style><path class="a" d="m-432-10h2048v524h-2048z"/><path class="b" d="m581 13l7 1 5 5 2 6v9l-3 25 16 5 16 9 9-13 9-10 6-5 4-2h7l5 5 1 2v6l-5 8-10 9-14 10 1 5 8 16 3 10v3l25-4h9l8 3 4 4v9l-5 4-5 2h-15l-9-1h-12l-6 19-7 11v2l9 6 10 8 5 5 5 8 1 6-6 6h-10l-8-7-7-7-10-14-6 2-12 6-12 3h-3l3 24v13l-3 6-4 4h-7l-7-6-1-3v-18l3-20-12-2-12-5-6-4-4 1-10 13-9 10-7 4-9-1-4-4v-7l4-8 7-7 18-13-9-19-3-13-34 2-9-3-3-4v-8l4-5 5-2h15l19 3 3 1 1-9 4-11 7-12 1-3-4-2-14-10-8-7-4-7v-6l4-6 4-2 6 1 6 4 9 9 12 16 11-6 13-5 7-2-1-17v-22l4-5z"/><path fill-rule="evenodd" class="b" d="m581 13l7 1 5 5 2 6v9l-3 25 16 5 16 9 9-13 9-10 6-5 4-2h7l5 5 1 2v6l-5 8-10 9-14 10 1 5 8 16 3 10v3l25-4h9l8 3 4 4v9l-5 4-5 2h-15l-9-1h-12l-6 19-7 11v2l9 6 10 8 5 5 5 8 1 6-6 6h-10l-8-7-7-7-10-14-6 2-12 6-12 3h-3l3 24v13l-3 6-4 4h-7l-7-6-1-3v-18l3-20-12-2-12-5-6-4-4 1-10 13-9 10-7 4-9-1-4-4v-7l4-8 7-7 18-13-9-19-3-13-34 2-9-3-3-4v-8l4-5 5-2h15l19 3 3 1 1-9 4-11 7-12 1-3-4-2-14-10-8-7-4-7v-6l4-6 4-2 6 1 6 4 9 9 12 16 11-6 13-5 7-2-1-17v-22l4-5zm-7 50l-15 4-13 7-7 7-10 14-5 12-2 9v16l5 16 7 14 12 12 15 8 11 3h22l13-4 11-6 10-9 7-8 7-14 3-12v-12l-3-14-4-10-7-11-8-8-14-9-11-4-5-1z"/><path class="c" d="m396 301h44l10 4 8 8 4 8 2 6v9l-4 12-7 8-7 4 1 6 10 19 10 16v2h-21l-4-4-11-22-7-11-2-2-7 1-1 37-1 1h-19l-1-1v-100z"/><path class="c" d="m853 301h41l9 3 8 7 6 8 2 6v12l-4 11-7 8-8 5 8 16 14 23 1 3h-24l-8-16-11-21-2-2h-8v38l-1 1h-12l-9-1 1-100z"/><path class="c" d="m282 301h46l8 3 9 8 6 12 1 12-3 10-6 8-10 7 1 5 20 35-1 2h-20l-5-8-12-23-6-8-8 1v38h-21v-52z"/><path fill-rule="evenodd" class="d" d="m574 63h19l13 4 10 5 10 8 8 9 7 14 3 10 1 7v12l-3 12-7 14-11 12-9 7-13 6-8 2h-22l-13-4-14-8-11-11-8-16-4-14v-16l4-15 7-12 9-11 7-6 13-6zm2 17l-13 4-10 7-7 8-6 12-1 4v19l4 11 7 9 7 7 14 7 4 1h16l11-4 11-7 7-8 5-10 2-8 1-15-3-10-7-11-9-9-11-5-9-2z"/><path class="c" d="m1052 297l2 1v104l-1 1h-19v-56l-6 4-11 12-9 10-7-6-11-12-7-8-1 7-1 49h-14l-6-1v-103l5 1 8 7 7 8 11 11 7 8 9 10 13-14 9-11 9-9 7-8z"/><path class="c" d="m540 296l2 2 12 31 16 38 13 33v3h-10l-12-1-3-9h-35l-3 9-2 1h-10l-11-1 6-16 13-32 16-39z"/><path class="c" d="m186 301h49v20h-30v20l26 1 1 2v18l-27 1v19h32v21h-52v-101z"/><path class="c" d="m1103 301h50v13l-1 7-29 1v19l26 1v20h-27v20h32l1 10v10l-1 1h-51l-1-1z"/><path class="c" d="m689 301h50v20l-30 1v20h25l1 4-1 16h-25v40h-21v-36z"/><path class="c" d="m6 301h69l1 1v18l-1 1h-24v81l-3 1h-17v-81l-25-1-1-2z"/><path class="c" d="m125 301h12v101h-20v-100z"/><path class="c" d="m781 302h20l1 100h-21z"/><path class="d" d="m549 102l4 2 13 12 2 1 2-5 5-4h15l6 4 4 6 1 3v8l-6 8-5 4-12 1-8-7-3-3-1-3v-8l1-3-22-1-3-2 6-12z"/><path class="b" d="m469 456h10l6 4 4 7v7l-3 6-6 5-3 1h-8l-6-4-4-8v-8l3-5 5-4z"/><path class="b" d="m219 456h10l6 4 3 5v11l-4 6-8 4h-7l-6-4-3-4-1-3v-9l3-5 4-4z"/><path class="b" d="m989 456h9l5 3 4 5 1 2v9l-3 6-8 5h-8l-6-4-4-6v-10l3-5 5-4z"/><path class="e" d="m302 321h18l7 3 3 6v7l-4 5-5 2-6 1h-11l-2-1-1-4v-17z"/><path class="e" d="m870 320l18 1 6 2 3 5v11l-4 4-8 2h-14l-2-5v-13z"/><path class="e" d="m415 321h13l10 2 3 4 1 9-3 6-7 3h-15l-3-2-1-18z"/><path class="b" d="m410 456h7l7 2 5 6 1 3v9l-4 6-6 3-12 1-1-1v-28z"/><path class="f" d="m581 17h5l5 5 1 3v8l-2 13-1 13-7 1-4-1-2-25v-12z"/><path class="g" d="m673 116h8l8 3 2 3v5l-5 4-3 1h-13l-20-2-2-1v-8l13-3z"/><path class="h" d="m580 188h6l2 6 3 21v9l-3 6-3 2-5-1-4-4-1-3v-12l3-20z"/><path class="i" d="m653 46l6 1 2 3v6l-4 6-10 9-13 10-4-1-5-6h3l2-4 11-14 8-8z"/><path class="h" d="m481 116h15l21 4 2 2v6l-10 2-12 1h-16l-4-2-1-8z"/><path class="j" d="m509 46l7 1 8 7 8 9 8 11-2 5-4 2-18-14-8-7-3-6 1-5z"/><path class="k" d="m533 168l5 1 1 1v5l-8 10-9 12-6 4-6 1-4-2v-9l5-7 13-10 6-4z"/><path class="g" d="m630 168l5 2 14 10 8 7 4 7-1 5-4 3-7-1-8-7-15-21 2-4z"/><path class="b" d="m258 106h12l5 3 3 5v10l-5 6-6 2h-9l-1-5v-18z"/><path class="b" d="m377 106h12l6 3 3 7-1 9-5 5-5 2h-10l-1-16z"/><path class="b" d="m520 456h10l7 3 1 2v8l-3 3 1 6 3 8h-6l-4-9-4-1-1 10h-5l-1-1v-28z"/><path class="b" d="m162 456h10l7 3 2 4v5l-4 5 1 5 3 6v2h-5l-7-10-1-2-2 12h-5l-1-22 1-7z"/><path class="b" d="m693 456l4 1 6 8 6 6 1-15 5 1v29l-4-2-7-9-5-4v14h-6z"/><path class="b" d="m113 456h10l7 3 2 3v7l-5 5-9 1v10l-1 1h-5v-29z"/><path class="l" d="m755 448l5 1 1 3-3 1 1 7 8 21 1 5-7-2-1-1-9 1-6 2-1-3 8-21 2-4v-9z"/><path class="b" d="m807 105l6 1 4 4 1 3v12l-4 5-2 1h-7l-4-5-1-4v-8l4-7z"/><path class="b" d="m767 105h6l4 5 2 6-1 9-3 5-2 1h-7l-4-5-1-3v-9l3-6z"/><path class="b" d="m796 457h7v18l1 3h6l1-1 1-20h6v15l-2 10-5 3h-10l-4-6-1-7z"/><path class="b" d="m319 456h10l4 1-1 5-8 1 2 5 6 1v4l-7 2v3l8 2v5l-2 1h-12l-1-1v-28z"/><path class="b" d="m568 456h11l4 1-2 5-7 1-1 4 8 1v5l-8 1 1 5 8 1v6h-13l-1-1-1-7v-21z"/><path class="b" d="m364 456h10l4 1-1 5-8 1-1 4 8 1-1 6h-7l1 5 8 1 1 5-1 1h-11l-3-1v-28z"/><path class="b" d="m266 456l6 1 6 12 6-12h6l-3 10-7 17-4 1-11-27z"/><path class="b" d="m1044 456l7 1 1 4-4 2h-4l1 4 8 5 1 2v7l-5 4-6 1-5-2-1-5 4-1 7 1-3-5-6-4-2-3 1-7 3-3z"/><path class="b" d="m619 456l6 1 1 4-4 2h-4l1 4 8 5 2 7-4 5-4 2-8-1-2-2v-4l10-1-1-5-7-2-1-2v-9l3-3z"/><path class="e" d="m539 346l3 3 7 19-1 5h-17l1-7 6-17z"/><path class="b" d="m941 456h7l2 2-1 4-9 2-3 3v7l4 4 10 2-1 4-1 1h-10l-6-4-3-7v-8l4-6z"/><path class="b" d="m846 456h12l9 1-1 4-6 2-1 17-1 5h-6v-22l-6-2-1-4z"/><path class="b" d="m421 106h13l1 3-3 2-5 1 1 3 6 2-2 4-4 2-1 3h6l2 1-1 5h-12l-1-1z"/><path class="b" d="m303 105h10l2 2-1 4h-7l2 4 6 3v2l-8 3 1 2 8 2v4l-2 1h-11l-1-1v-25z"/><path class="m" d="m471 462h7l4 4 1 6-3 6-4 2-7-1-3-4-1-7 2-4z"/><path class="n" d="m990 462h7l4 4 1 2v6l-4 5-8 1-5-5v-9z"/><path class="d" d="m221 462h6l5 5v7l-5 5-6 1-4-2-2-3v-9l3-3z"/><path class="b" d="m844 105h8l2 4-1 1h-7l2 5 6 4 2 6-4 5-2 1h-10l-1-4 7-2 3-1v-2l-8-4-1-10 1-2z"/><path class="b" d="m346 105l5 2v4l-6 1 2 4 6 4 1 1v7l-6 4h-7l-3-2 1-4 8-1v-2l-8-6v-7l4-4z"/><path class="o" d="m574 142l2 1 1 4v16l-1 2-9-2-7-4 1-5 8-7z"/><path class="b" d="m729 105l6 1 3 2 1 8-4 5-2 5h6l2 4-1 1h-15l-1-4 7-10 1-6h-8l1-4z"/><path class="p" d="m574 84l3 1v19l-3 1-8-7-6-6 1-3 8-4z"/><path class="g" d="m543 130h21l1 2-7 8-8 8-3-3-4-12z"/><path class="f" d="m622 130h2l-3 10-4 8-4-2-10-11-1-4z"/><path class="f" d="m615 100h2l7 14v2l-2 1h-19l-1-2 5-5 7-8z"/><path class="q" d="m591 143l5 3 5 6 5 5-1 3-11 5h-3l-1-11v-10z"/><path class="f" d="m549 102l4 2 13 12 2 2-23-1-3-2 6-12z"/><path class="r" d="m591 84l8 2 6 3 2 3-13 13h-3z"/><path class="g" d="m414 462l7 1 3 3v10l-4 3-5 1-2-1v-16z"/><path class="b" d="m894 457h6v28l-1 1h-5z"/><path class="k" d="m581 144h6l1 21-2 1h-6v-21z"/><path class="s" d="m544 120h12l7 1 1 4-2 2-16 2h-3l-1-7z"/><path class="t" d="m620 120l6 1-1 5-6 2-16 1-1-2 3-6z"/><path class="s" d="m556 93l7 6 7 8-1 5-5-1-11-11-1-3z"/><path class="u" d="m581 83h6l1 3-1 18h-7v-20z"/><path class="k" d="m382 111l8 1 2 3v8l-4 3h-5l-1-1z"/><path class="r" d="m597 138h5l9 9 2 3-1 5-4-1-5-5-7-6z"/><path class="v" d="m264 111l7 1 2 4v6l-2 3-8 1v-14z"/><path class="w" d="m567 136l3 2-1 5-10 10-4 2-2-2 1-4 11-12z"/><path class="o" d="m609 93l4 1 1 4-13 13-4-1-1-2 7-8z"/><path class="f" d="m808 110l4 2 1 1v11l-4 2-4-4v-8z"/><path class="x" d="m768 110l4 1 2 5-1 8-2 2-4-1-1-3v-8z"/><path class="k" d="m167 462h6l2 5-1 1h-7l-1-5z"/><path class="q" d="m526 462h5l1 5-1 1h-5l-2-3z"/><path class="y" d="m120 462l5 1 1 3-3 3-4-1-1-4z"/></svg>