<?xml version="1.0" encoding="UTF-8"?>
<svg version="1.1" viewBox="0 0 2048 524" width="1280" height="1280" xmlns="http://www.w3.org/2000/svg">
<path transform="translate(0)" d="m0 0h2048v524h-2048z" fill="#FDFDFD"/>
<path transform="translate(1013,23)" d="m0 0 7 1 5 5 2 6v9l-3 25 16 5 16 9 9-13 9-10 6-5 4-2h7l5 5 1 2v6l-5 8-10 9-14 10 1 5 8 16 3 10v3l25-4h9l8 3 4 4v9l-5 4-5 2h-15l-9-1h-12l-6 19-7 11v2l9 6 10 8 5 5 5 8 1 6-6 6h-10l-8-7-7-7-10-14-6 2-12 6-12 3h-3l3 24v13l-3 6-4 4h-7l-7-6-1-3v-18l3-20-12-2-12-5-6-4-4 1-10 13-9 10-7 4-9-1-4-4v-7l4-8 7-7 18-13-9-19-3-13-34 2-9-3-3-4v-8l4-5 5-2h15l19 3 3 1 1-9 4-11 7-12 1-3-4-2-14-10-8-7-4-7v-6l4-6 4-2 6 1 6 4 9 9 12 16 11-6 13-5 7-2-1-17v-22l4-5z" fill="#221F22"/>
<path transform="translate(1013,23)" d="m0 0 7 1 5 5 2 6v9l-3 25 16 5 16 9 9-13 9-10 6-5 4-2h7l5 5 1 2v6l-5 8-10 9-14 10 1 5 8 16 3 10v3l25-4h9l8 3 4 4v9l-5 4-5 2h-15l-9-1h-12l-6 19-7 11v2l9 6 10 8 5 5 5 8 1 6-6 6h-10l-8-7-7-7-10-14-6 2-12 6-12 3h-3l3 24v13l-3 6-4 4h-7l-7-6-1-3v-18l3-20-12-2-12-5-6-4-4 1-10 13-9 10-7 4-9-1-4-4v-7l4-8 7-7 18-13-9-19-3-13-34 2-9-3-3-4v-8l4-5 5-2h15l19 3 3 1 1-9 4-11 7-12 1-3-4-2-14-10-8-7-4-7v-6l4-6 4-2 6 1 6 4 9 9 12 16 11-6 13-5 7-2-1-17v-22l4-5zm-7 50-15 4-13 7-7 7-10 14-5 12-2 9v16l5 16 7 14 12 12 15 8 11 3h22l13-4 11-6 10-9 7-8 7-14 3-12v-12l-3-14-4-10-7-11-8-8-14-9-11-4-5-1z" fill="#221F22"/>
<path transform="translate(828,311)" d="m0 0h44l10 4 8 8 4 8 2 6v9l-4 12-7 8-7 4 1 6 10 19 10 16v2h-21l-4-4-11-22-7-11-2-2-7 1-1 37-1 1h-19l-1-1v-100z" fill="#38B2F9"/>
<path transform="translate(1285,311)" d="m0 0h41l9 3 8 7 6 8 2 6v12l-4 11-7 8-8 5 8 16 14 23 1 3h-24l-8-16-11-21-2-2h-8v38l-1 1h-12l-9-1 1-100z" fill="#38B2F9"/>
<path transform="translate(714,311)" d="m0 0h46l8 3 9 8 6 12 1 12-3 10-6 8-10 7 1 5 20 35-1 2h-20l-5-8-12-23-6-8-8 1v38h-21v-52z" fill="#38B2F9"/>
<path transform="translate(1006,73)" d="m0 0h19l13 4 10 5 10 8 8 9 7 14 3 10 1 7v12l-3 12-7 14-11 12-9 7-13 6-8 2h-22l-13-4-14-8-11-11-8-16-4-14v-16l4-15 7-12 9-11 7-6 13-6zm2 17-13 4-10 7-7 8-6 12-1 4v19l4 11 7 9 7 7 14 7 4 1h16l11-4 11-7 7-8 5-10 2-8 1-15-3-10-7-11-9-9-11-5-9-2z" fill="#FAFCFD"/>
<path transform="translate(1484,307)" d="m0 0 2 1v104l-1 1h-19v-56l-6 4-11 12-9 10-7-6-11-12-7-8-1 7-1 49h-14l-6-1v-103l5 1 8 7 7 8 11 11 7 8 9 10 13-14 9-11 9-9 7-8z" fill="#38B2F9"/>
<path transform="translate(972,306)" d="m0 0 2 2 12 31 16 38 13 33v3h-10l-12-1-3-9h-35l-3 9-2 1h-10l-11-1 6-16 13-32 16-39z" fill="#38B2F9"/>
<path transform="translate(618,311)" d="m0 0h49v20h-30v20l26 1 1 2v18l-27 1v19h32v21h-52v-101z" fill="#38B2F9"/>
<path transform="translate(1535,311)" d="m0 0h50v13l-1 7-29 1v19l26 1v20h-27v20h32l1 10v10l-1 1h-51l-1-1z" fill="#38B2F9"/>
<path transform="translate(1121,311)" d="m0 0h50v20l-30 1v20h25l1 4-1 16h-25v40h-21v-36z" fill="#38B2F9"/>
<path transform="translate(438,311)" d="m0 0h69l1 1v18l-1 1h-24v81l-3 1h-17v-81l-25-1-1-2z" fill="#38B2F9"/>
<path transform="translate(557,311)" d="m0 0h12v101h-20v-100z" fill="#38B2F9"/>
<path transform="translate(1213,312)" d="m0 0h20l1 100h-21z" fill="#38B2F9"/>
<path transform="translate(981,112)" d="m0 0 4 2 13 12 2 1 2-5 5-4h15l6 4 4 6 1 3v8l-6 8-5 4-12 1-8-7-3-3-1-3v-8l1-3-22-1-3-2 6-12z" fill="#FAFCFD"/>
<path transform="translate(901,466)" d="m0 0h10l6 4 4 7v7l-3 6-6 5-3 1h-8l-6-4-4-8v-8l3-5 5-4z" fill="#221F22"/>
<path transform="translate(651,466)" d="m0 0h10l6 4 3 5v11l-4 6-8 4h-7l-6-4-3-4-1-3v-9l3-5 4-4z" fill="#221F22"/>
<path transform="translate(1421,466)" d="m0 0h9l5 3 4 5 1 2v9l-3 6-8 5h-8l-6-4-4-6v-10l3-5 5-4z" fill="#221F22"/>
<path transform="translate(734,331)" d="m0 0h18l7 3 3 6v7l-4 5-5 2-6 1h-11l-2-1-1-4v-17z" fill="#FEFEFE"/>
<path transform="translate(1302,330)" d="m0 0 18 1 6 2 3 5v11l-4 4-8 2h-14l-2-5v-13z" fill="#FEFEFE"/>
<path transform="translate(847,331)" d="m0 0h13l10 2 3 4 1 9-3 6-7 3h-15l-3-2-1-18z" fill="#FEFEFE"/>
<path transform="translate(842,466)" d="m0 0h7l7 2 5 6 1 3v9l-4 6-6 3-12 1-1-1v-28z" fill="#221F22"/>
<path transform="translate(1013,27)" d="m0 0h5l5 5 1 3v8l-2 13-1 13-7 1-4-1-2-25v-12z" fill="#F4FAFD"/>
<path transform="translate(1105,126)" d="m0 0h8l8 3 2 3v5l-5 4-3 1h-13l-20-2-2-1v-8l13-3z" fill="#F7FBFD"/>
<path transform="translate(1012,198)" d="m0 0h6l2 6 3 21v9l-3 6-3 2-5-1-4-4-1-3v-12l3-20z" fill="#F8FBFD"/>
<path transform="translate(1085,56)" d="m0 0 6 1 2 3v6l-4 6-10 9-13 10-4-1-5-6h3l2-4 11-14 8-8z" fill="#F6FBFD"/>
<path transform="translate(913,126)" d="m0 0h15l21 4 2 2v6l-10 2-12 1h-16l-4-2-1-8z" fill="#F8FBFD"/>
<path transform="translate(941,56)" d="m0 0 7 1 8 7 8 9 8 11-2 5-4 2-18-14-8-7-3-6 1-5z" fill="#F9FCFD"/>
<path transform="translate(965,178)" d="m0 0 5 1 1 1v5l-8 10-9 12-6 4-6 1-4-2v-9l5-7 13-10 6-4z" fill="#F5FAFD"/>
<path transform="translate(1062,178)" d="m0 0 5 2 14 10 8 7 4 7-1 5-4 3-7-1-8-7-15-21 2-4z" fill="#F7FBFD"/>
<path transform="translate(690,116)" d="m0 0h12l5 3 3 5v10l-5 6-6 2h-9l-1-5v-18z" fill="#221F22"/>
<path transform="translate(809,116)" d="m0 0h12l6 3 3 7-1 9-5 5-5 2h-10l-1-16z" fill="#221F22"/>
<path transform="translate(952,466)" d="m0 0h10l7 3 1 2v8l-3 3 1 6 3 8h-6l-4-9-4-1-1 10h-5l-1-1v-28z" fill="#221F22"/>
<path transform="translate(594,466)" d="m0 0h10l7 3 2 4v5l-4 5 1 5 3 6v2h-5l-7-10-1-2-2 12h-5l-1-22 1-7z" fill="#221F22"/>
<path transform="translate(1125,466)" d="m0 0 4 1 6 8 6 6 1-15 5 1v29l-4-2-7-9-5-4v14h-6z" fill="#221F22"/>
<path transform="translate(545,466)" d="m0 0h10l7 3 2 3v7l-5 5-9 1v10l-1 1h-5v-29z" fill="#221F22"/>
<path transform="translate(1187,458)" d="m0 0 5 1 1 3-3 1 1 7 8 21 1 5-7-2-1-1-9 1-6 2-1-3 8-21 2-4v-9z" fill="#2B292C"/>
<path transform="translate(1239,115)" d="m0 0 6 1 4 4 1 3v12l-4 5-2 1h-7l-4-5-1-4v-8l4-7z" fill="#221F22"/>
<path transform="translate(1199,115)" d="m0 0h6l4 5 2 6-1 9-3 5-2 1h-7l-4-5-1-3v-9l3-6z" fill="#221F22"/>
<path transform="translate(1228,467)" d="m0 0h7v18l1 3h6l1-1 1-20h6v15l-2 10-5 3h-10l-4-6-1-7z" fill="#221F22"/>
<path transform="translate(751,466)" d="m0 0h10l4 1-1 5-8 1 2 5 6 1v4l-7 2v3l8 2v5l-2 1h-12l-1-1v-28z" fill="#221F22"/>
<path transform="translate(1e3 466)" d="m0 0h11l4 1-2 5-7 1-1 4 8 1v5l-8 1 1 5 8 1v6h-13l-1-1-1-7v-21z" fill="#221F22"/>
<path transform="translate(796,466)" d="m0 0h10l4 1-1 5-8 1-1 4 8 1-1 6h-7l1 5 8 1 1 5-1 1h-11l-3-1v-28z" fill="#221F22"/>
<path transform="translate(698,466)" d="m0 0 6 1 6 12 6-12h6l-3 10-7 17-4 1-11-27z" fill="#221F22"/>
<path transform="translate(1476,466)" d="m0 0 7 1 1 4-4 2h-4l1 4 8 5 1 2v7l-5 4-6 1-5-2-1-5 4-1 7 1-3-5-6-4-2-3 1-7 3-3z" fill="#221F22"/>
<path transform="translate(1051,466)" d="m0 0 6 1 1 4-4 2h-4l1 4 8 5 2 7-4 5-4 2-8-1-2-2v-4l10-1-1-5-7-2-1-2v-9l3-3z" fill="#221F22"/>
<path transform="translate(971,356)" d="m0 0 3 3 7 19-1 5h-17l1-7 6-17z" fill="#FEFEFE"/>
<path transform="translate(1373,466)" d="m0 0h7l2 2-1 4-9 2-3 3v7l4 4 10 2-1 4-1 1h-10l-6-4-3-7v-8l4-6z" fill="#221F22"/>
<path transform="translate(1278,466)" d="m0 0h12l9 1-1 4-6 2-1 17-1 5h-6v-22l-6-2-1-4z" fill="#221F22"/>
<path transform="translate(853,116)" d="m0 0h13l1 3-3 2-5 1 1 3 6 2-2 4-4 2-1 3h6l2 1-1 5h-12l-1-1z" fill="#221F22"/>
<path transform="translate(735,115)" d="m0 0h10l2 2-1 4h-7l2 4 6 3v2l-8 3 1 2 8 2v4l-2 1h-11l-1-1v-25z" fill="#221F22"/>
<path transform="translate(903,472)" d="m0 0h7l4 4 1 6-3 6-4 2-7-1-3-4-1-7 2-4z" fill="#F3FAFD"/>
<path transform="translate(1422,472)" d="m0 0h7l4 4 1 2v6l-4 5-8 1-5-5v-9z" fill="#F6FAFD"/>
<path transform="translate(653,472)" d="m0 0h6l5 5v7l-5 5-6 1-4-2-2-3v-9l3-3z" fill="#FAFCFD"/>
<path transform="translate(1276,115)" d="m0 0h8l2 4-1 1h-7l2 5 6 4 2 6-4 5-2 1h-10l-1-4 7-2 3-1v-2l-8-4-1-10 1-2z" fill="#221F22"/>
<path transform="translate(778,115)" d="m0 0 5 2v4l-6 1 2 4 6 4 1 1v7l-6 4h-7l-3-2 1-4 8-1v-2l-8-6v-7l4-4z" fill="#221F22"/>
<path transform="translate(1006,152)" d="m0 0 2 1 1 4v16l-1 2-9-2-7-4 1-5 8-7z" fill="#EAF6FD"/>
<path transform="translate(1161,115)" d="m0 0 6 1 3 2 1 8-4 5-2 5h6l2 4-1 1h-15l-1-4 7-10 1-6h-8l1-4z" fill="#221F22"/>
<path transform="translate(1006,94)" d="m0 0 3 1v19l-3 1-8-7-6-6 1-3 8-4z" fill="#F3F9FD"/>
<path transform="translate(975,140)" d="m0 0h21l1 2-7 8-8 8-3-3-4-12z" fill="#F7FBFD"/>
<path transform="translate(1054,140)" d="m0 0h2l-3 10-4 8-4-2-10-11-1-4z" fill="#F4FAFD"/>
<path transform="translate(1047,110)" d="m0 0h2l7 14v2l-2 1h-19l-1-2 5-5 7-8z" fill="#F4FAFD"/>
<path transform="translate(1023,153)" d="m0 0 5 3 5 6 5 5-1 3-11 5h-3l-1-11v-10z" fill="#EEF8FD"/>
<path transform="translate(981,112)" d="m0 0 4 2 13 12 2 2-23-1-3-2 6-12z" fill="#F4FAFD"/>
<path transform="translate(1023,94)" d="m0 0 8 2 6 3 2 3-13 13h-3z" fill="#F0F8FD"/>
<path transform="translate(846,472)" d="m0 0 7 1 3 3v10l-4 3-5 1-2-1v-16z" fill="#F7FBFD"/>
<path transform="translate(1326,467)" d="m0 0h6v28l-1 1h-5z" fill="#221F22"/>
<path transform="translate(1013,154)" d="m0 0h6l1 21-2 1h-6v-21z" fill="#F5FAFD"/>
<path transform="translate(976,130)" d="m0 0h12l7 1 1 4-2 2-16 2h-3l-1-7z" fill="#E8F5FD"/>
<path transform="translate(1052,130)" d="m0 0 6 1-1 5-6 2-16 1-1-2 3-6z" fill="#ECF7FD"/>
<path transform="translate(988,103)" d="m0 0 7 6 7 8-1 5-5-1-11-11-1-3z" fill="#E8F5FD"/>
<path transform="translate(1013,93)" d="m0 0h6l1 3-1 18h-7v-20z" fill="#FBFCFD"/>
<path transform="translate(814,121)" d="m0 0 8 1 2 3v8l-4 3h-5l-1-1z" fill="#F5FAFD"/>
<path transform="translate(1029,148)" d="m0 0h5l9 9 2 3-1 5-4-1-5-5-7-6z" fill="#F0F8FD"/>
<path transform="translate(696,121)" d="m0 0 7 1 2 4v6l-2 3-8 1v-14z" fill="#F1F9FD"/>
<path transform="translate(999,146)" d="m0 0 3 2-1 5-10 10-4 2-2-2 1-4 11-12z" fill="#EBF6FD"/>
<path transform="translate(1041,103)" d="m0 0 4 1 1 4-13 13-4-1-1-2 7-8z" fill="#EAF6FD"/>
<path transform="translate(1240,120)" d="m0 0 4 2 1 1v11l-4 2-4-4v-8z" fill="#F4FAFD"/>
<path transform="translate(1200,120)" d="m0 0 4 1 2 5-1 8-2 2-4-1-1-3v-8z" fill="#EEF7FD"/>
<path transform="translate(599,472)" d="m0 0h6l2 5-1 1h-7l-1-5z" fill="#F5FAFD"/>
<path transform="translate(958,472)" d="m0 0h5l1 5-1 1h-5l-2-3z" fill="#EEF8FD"/>
<path transform="translate(552,472)" d="m0 0 5 1 1 3-3 3-4-1-1-4z" fill="#E9F6FD"/>
</svg>
